<svg xmlns="http://www.w3.org/2000/svg" width="128" height="40" viewBox="0 0 128 40" fill="none" alt="Bubobot"
    data-v-8dc685a7="">
    <path
        d="M40.3492 28.0027C39.8344 28.0027 39.3437 27.9307 38.8718 27.7893C38.4 27.648 37.9763 27.456 37.5983 27.2133C37.2202 26.9733 36.9039 26.6907 36.6545 26.3707C36.4052 26.0507 36.2362 25.72 36.1504 25.3787L36.8985 25.1227L36.7054 27.744H33.5148V12H36.9628V19.1573L36.255 18.9013C36.3408 18.5333 36.5044 18.1867 36.7483 17.8667C36.9896 17.5467 37.298 17.264 37.668 17.0133C38.038 16.7653 38.4455 16.5707 38.8879 16.4267C39.3303 16.2853 39.7888 16.2133 40.258 16.2133C41.2447 16.2133 42.1188 16.4667 42.8829 16.9707C43.647 17.4747 44.2503 18.1707 44.6927 19.0587C45.1351 19.9467 45.3576 20.9573 45.3576 22.096C45.3576 23.2347 45.1405 24.2667 44.7034 25.152C44.2664 26.04 43.6712 26.736 42.9151 27.24C42.159 27.744 41.301 27.9973 40.3438 27.9973L40.3492 28.0027ZM39.4483 25.128C39.9631 25.128 40.4108 25 40.7969 24.744C41.183 24.488 41.478 24.136 41.6844 23.688C41.8909 23.24 41.9954 22.712 41.9954 22.1013C41.9954 21.4907 41.8909 20.9787 41.6844 20.5253C41.478 20.072 41.1803 19.7227 40.7969 19.48C40.4108 19.24 39.9604 19.1173 39.4483 19.1173C38.9362 19.1173 38.4616 19.2373 38.0782 19.48C37.6921 19.7227 37.3918 20.0693 37.1773 20.5253C36.9628 20.9787 36.8556 21.5067 36.8556 22.1013C36.8556 22.696 36.9628 23.24 37.1773 23.688C37.3918 24.136 37.6921 24.488 38.0782 24.744C38.4643 25 38.9201 25.128 39.4483 25.128Z"
        fill="#ffffff"></path>
    <path
        d="M50.9318 28.0027C50.0899 28.0027 49.3714 27.8214 48.7788 27.4587C48.1863 27.096 47.7278 26.576 47.4088 25.8934C47.087 25.2107 46.9261 24.3947 46.9261 23.4427V16.456H50.3742V22.976C50.3742 23.4294 50.4465 23.8214 50.5886 24.1467C50.7307 24.4747 50.9452 24.7254 51.2321 24.904C51.519 25.0827 51.8595 25.1707 52.259 25.1707C52.5593 25.1707 52.8328 25.12 53.0848 25.0214C53.3342 24.9227 53.5487 24.784 53.7283 24.6054C53.9053 24.4294 54.0447 24.2214 54.1466 23.9867C54.2458 23.752 54.2967 23.4934 54.2967 23.208V16.4534H57.7447V27.7654H54.5112L54.3611 25.4427L55.0046 25.1867C54.833 25.728 54.5488 26.2054 54.1466 26.624C53.7471 27.0427 53.2698 27.376 52.7121 27.624C52.1545 27.872 51.5619 27.9974 50.9345 27.9974L50.9318 28.0027Z"
        fill="#ffffff"></path>
    <path
        d="M66.8125 28.0027C66.2977 28.0027 65.807 27.9307 65.3352 27.7893C64.8633 27.648 64.4396 27.456 64.0616 27.2133C63.6835 26.9733 63.3672 26.6907 63.1178 26.3707C62.8685 26.0507 62.6996 25.72 62.6138 25.3787L63.3618 25.1227L63.1688 27.744H59.9781V12H63.4262V19.1573L62.7183 18.9013C62.8041 18.5333 62.9677 18.1867 63.2117 17.8667C63.453 17.5467 63.7613 17.264 64.1313 17.0133C64.5013 16.7653 64.9089 16.5707 65.3512 16.4267C65.7936 16.2853 66.2521 16.2133 66.7213 16.2133C67.708 16.2133 68.5821 16.4667 69.3462 16.9707C70.1104 17.4747 70.7136 18.1707 71.156 19.0587C71.5984 19.9467 71.8209 20.9573 71.8209 22.096C71.8209 23.2347 71.6038 24.2667 71.1667 25.152C70.7297 26.04 70.1345 26.736 69.3784 27.24C68.6223 27.744 67.7643 27.9973 66.8071 27.9973L66.8125 28.0027ZM65.9116 25.128C66.4264 25.128 66.8742 25 67.2603 24.744C67.6463 24.488 67.9413 24.136 68.1477 23.688C68.3542 23.24 68.4587 22.712 68.4587 22.1013C68.4587 21.4907 68.3542 20.9787 68.1477 20.5253C67.9413 20.072 67.6437 19.7227 67.2603 19.48C66.8742 19.24 66.4237 19.1173 65.9116 19.1173C65.3995 19.1173 64.9249 19.2373 64.5415 19.48C64.1554 19.7227 63.8551 20.0693 63.6407 20.5253C63.4262 20.9787 63.3189 21.5067 63.3189 22.1013C63.3189 22.696 63.4262 23.24 63.6407 23.688C63.8551 24.136 64.1554 24.488 64.5415 24.744C64.9276 25 65.3834 25.128 65.9116 25.128Z"
        fill="#ffffff"></path>
    <path
        d="M78.8671 27.9814C77.682 27.9814 76.6283 27.7254 75.7086 27.2134C74.7863 26.7014 74.0597 26.0054 73.5235 25.1254C72.9872 24.2454 72.7191 23.2374 72.7191 22.0987C72.7191 20.9601 72.9872 19.9547 73.5235 19.0721C74.0597 18.1921 74.7863 17.4961 75.7086 16.9841C76.631 16.4721 77.682 16.2161 78.8671 16.2161C80.0522 16.2161 81.1059 16.4721 82.0255 16.9841C82.9452 17.4961 83.6718 18.1921 84.2 19.0721C84.7281 19.9521 84.9936 20.9601 84.9936 22.0987C84.9936 23.2374 84.7281 24.2427 84.2 25.1254C83.6718 26.0054 82.9452 26.7014 82.0255 27.2134C81.1032 27.7254 80.0495 27.9814 78.8671 27.9814ZM78.8671 25.0427C79.3819 25.0427 79.8377 24.9147 80.2372 24.6587C80.6367 24.4027 80.9504 24.0561 81.1809 23.6161C81.4088 23.1761 81.5161 22.6721 81.5027 22.1041C81.5161 21.5361 81.4088 21.0267 81.1809 20.5814C80.953 20.1334 80.6367 19.7814 80.2372 19.5254C79.8377 19.2694 79.3792 19.1414 78.8671 19.1414C78.355 19.1414 77.8911 19.2694 77.4863 19.5254C77.0787 19.7814 76.7623 20.1334 76.5344 20.5814C76.3065 21.0294 76.1993 21.5361 76.2127 22.1041C76.1993 22.6721 76.3065 23.1761 76.5344 23.6161C76.7623 24.0561 77.0814 24.4054 77.4863 24.6587C77.8938 24.9147 78.355 25.0427 78.8671 25.0427Z"
        fill="#ffffff"></path>
    <path
        d="M93.3937 28.0027C92.8789 28.0027 92.3883 27.9307 91.9164 27.7893C91.4445 27.648 91.0209 27.456 90.6428 27.2133C90.2648 26.9733 89.9484 26.6907 89.6991 26.3707C89.4497 26.0507 89.2808 25.72 89.195 25.3787L89.943 25.1227L89.75 27.744H86.5594V12H90.0074V19.1573L89.2996 18.9013C89.3854 18.5333 89.5489 18.1867 89.7929 17.8667C90.0342 17.5467 90.3425 17.264 90.7125 17.0133C91.0825 16.7653 91.4901 16.5707 91.9325 16.4267C92.3749 16.2853 92.8334 16.2133 93.3026 16.2133C94.2892 16.2133 95.1633 16.4667 95.9275 16.9707C96.6916 17.4747 97.2949 18.1707 97.7373 19.0587C98.1797 19.9467 98.4022 20.9573 98.4022 22.096C98.4022 23.2347 98.185 24.2667 97.748 25.152C97.3109 26.04 96.7157 26.736 95.9596 27.24C95.2035 27.744 94.3456 27.9973 93.3884 27.9973L93.3937 28.0027ZM92.4929 25.128C93.0076 25.128 93.4554 25 93.8415 24.744C94.2276 24.488 94.5225 24.136 94.729 23.688C94.9354 23.24 95.04 22.712 95.04 22.1013C95.04 21.4907 94.9354 20.9787 94.729 20.5253C94.5225 20.072 94.2249 19.7227 93.8415 19.48C93.4554 19.24 93.005 19.1173 92.4929 19.1173C91.9807 19.1173 91.5062 19.2373 91.1228 19.48C90.7367 19.7227 90.4364 20.0693 90.2219 20.5253C90.0074 20.9787 89.9001 21.5067 89.9001 22.1013C89.9001 22.696 90.0074 23.24 90.2219 23.688C90.4364 24.136 90.7367 24.488 91.1228 24.744C91.5089 25 91.9647 25.128 92.4929 25.128Z"
        fill="#ffffff"></path>
    <path
        d="M106.119 27.9814C104.934 27.9814 103.88 27.7254 102.96 27.2134C102.038 26.7014 101.311 26.0054 100.775 25.1254C100.239 24.2454 99.9707 23.2374 99.9707 22.0987C99.9707 20.9601 100.239 19.9547 100.775 19.0721C101.311 18.1921 102.038 17.4961 102.96 16.9841C103.883 16.4721 104.934 16.2161 106.119 16.2161C107.304 16.2161 108.357 16.4721 109.277 16.9841C110.197 17.4961 110.923 18.1921 111.452 19.0721C111.98 19.9521 112.245 20.9601 112.245 22.0987C112.245 23.2374 111.98 24.2427 111.452 25.1254C110.923 26.0054 110.197 26.7014 109.277 27.2134C108.355 27.7254 107.301 27.9814 106.119 27.9814ZM106.119 25.0427C106.633 25.0427 107.089 24.9147 107.489 24.6587C107.888 24.4027 108.202 24.0561 108.433 23.6161C108.66 23.1761 108.768 22.6721 108.754 22.1041C108.768 21.5361 108.66 21.0267 108.433 20.5814C108.205 20.1334 107.888 19.7814 107.489 19.5254C107.089 19.2694 106.631 19.1414 106.119 19.1414C105.607 19.1414 105.143 19.2694 104.738 19.5254C104.33 19.7814 104.014 20.1334 103.786 20.5814C103.558 21.0294 103.451 21.5361 103.464 22.1041C103.451 22.6721 103.558 23.1761 103.786 23.6161C104.014 24.0561 104.333 24.4054 104.738 24.6587C105.145 24.9147 105.607 25.0427 106.119 25.0427Z"
        fill="#ffffff"></path>
    <path d="M113.007 19.4374V16.4534H120.653V19.4374H113.007ZM115.02 27.7681V13.6001H118.447V27.7681H115.02Z"
        fill="#ffffff"></path>
    <path d="M28.4018 6.66675L18.5457 9.75208L8.6897 6.66675L9.07043 12.7121H28.021L28.4018 6.66675Z" fill="#02B185">
    </path>
    <path
        d="M28.8227 16.96C28.8227 11.4373 24.321 6.95996 18.7683 6.95996C13.2155 6.95996 8.71381 11.4373 8.71381 16.96C8.71381 17 8.71917 17.0373 8.71917 17.0773H8.71381V29.3706C10.2126 29.3706 11.5451 29.248 12.7356 29.0293V33.3333C26.4606 33.3333 28.8227 23.7333 28.8227 17.04H28.82C28.82 17.0133 28.8227 16.9893 28.8227 16.9626V16.96Z"
        fill="#02B185"></path>
    <path
        d="M23.9403 10.3174H13.5936C9.7863 10.3174 6.70026 13.3867 6.70026 17.1734C6.70026 20.96 9.7863 24.0294 13.5936 24.0294H23.9403C27.7476 24.0294 30.8336 20.96 30.8336 17.1734C30.8336 13.3867 27.7476 10.3174 23.9403 10.3174Z"
        fill="#AAE5D6"></path>
    <path
        d="M23.9403 24.0267H13.5936C9.92037 24.0267 6.92548 21.1654 6.72171 17.5627C6.71367 17.6934 6.70294 17.8214 6.70294 17.9547C6.70294 21.7414 9.78899 24.8081 13.5963 24.8081H23.943C27.7503 24.8081 30.8363 21.7387 30.8363 17.9547C30.8363 17.8214 30.8229 17.6934 30.8175 17.5627C30.6138 21.1654 27.6189 24.0267 23.9456 24.0267H23.9403Z"
        fill="#02B185"></path>
    <path
        d="M23.2378 12.168C21.4548 12.168 19.8595 12.952 18.7683 14.1866C17.6771 12.952 16.0817 12.168 14.2988 12.168C11.1564 12.168 8.59052 14.5893 8.3653 17.656C8.59052 20.7226 11.1564 23.144 14.2988 23.144C16.256 23.144 16.3391 20.0453 18.7683 20.0453C21.1975 20.0453 21.4441 23.144 23.2378 23.144C26.3775 23.144 28.9461 20.7226 29.1713 17.656C28.9461 14.5893 26.3802 12.168 23.2378 12.168Z"
        fill="#00231B"></path>
    <path
        d="M29.1927 17.2188C29.1927 13.9468 26.5276 11.2961 23.2378 11.2961C21.4548 11.2961 19.8595 12.0801 18.7683 13.3148C17.677 12.0801 16.0817 11.2961 14.2987 11.2961C11.0089 11.2961 8.34381 13.9468 8.34381 17.2188C8.34381 17.3655 8.35454 17.5095 8.36526 17.6535C8.59048 14.5868 11.1564 12.1655 14.2987 12.1655C16.0817 12.1655 17.677 12.9495 18.7683 14.1841C19.8595 12.9495 21.4548 12.1655 23.2378 12.1655C26.3775 12.1655 28.946 14.5868 29.1713 17.6535C29.1579 17.8428 29.1337 18.0268 29.1042 18.2108C29.1579 17.8881 29.1954 17.5575 29.1954 17.2188H29.1927Z"
        fill="#02B185"></path>
    <path
        d="M23.3611 21.2799C25.643 21.2799 27.4928 19.4401 27.4928 17.1706C27.4928 14.9011 25.643 13.0613 23.3611 13.0613C21.0793 13.0613 19.2294 14.9011 19.2294 17.1706C19.2294 19.4401 21.0793 21.2799 23.3611 21.2799Z"
        fill="#087F86"></path>
    <path
        d="M23.3611 19.9095C24.8819 19.9095 26.1147 18.6833 26.1147 17.1708C26.1147 15.6583 24.8819 14.4321 23.3611 14.4321C21.8404 14.4321 20.6075 15.6583 20.6075 17.1708C20.6075 18.6833 21.8404 19.9095 23.3611 19.9095Z"
        fill="#CFF6F8"></path>
    <path
        d="M14.1754 21.2799C16.4573 21.2799 18.3071 19.4401 18.3071 17.1706C18.3071 14.9011 16.4573 13.0613 14.1754 13.0613C11.8935 13.0613 10.0437 14.9011 10.0437 17.1706C10.0437 19.4401 11.8935 21.2799 14.1754 21.2799Z"
        fill="#087F86"></path>
    <path
        d="M14.1754 19.9095C15.6962 19.9095 16.929 18.6833 16.929 17.1708C16.929 15.6583 15.6962 14.4321 14.1754 14.4321C12.6546 14.4321 11.4218 15.6583 11.4218 17.1708C11.4218 18.6833 12.6546 19.9095 14.1754 19.9095Z"
        fill="#CFF6F8"></path>
    <path
        d="M18.7682 20.6667C17.6797 20.6667 16.9665 21.7707 16.9665 22.6881C16.9665 23.6054 18.1274 25.1467 18.7682 25.1467C19.4091 25.1467 20.57 23.6054 20.57 22.6881C20.57 21.7707 19.8541 20.6667 18.7682 20.6667Z"
        fill="#00231B"></path>
</svg>