<svg width="76" height="60" viewBox="0 0 76 60" fill="none" xmlns="http://www.w3.org/2000/svg">
<path d="M48.7208 7.53833L37.6904 11.0087L26.6624 7.53833L27.0896 14.3399H48.2936L48.7208 7.53833Z" fill="#02B185"/>
<path d="M49.1912 19.1184C49.1912 12.9048 44.1536 7.86719 37.94 7.86719C31.7264 7.86719 26.6888 12.9048 26.6888 19.1184C26.6888 19.164 26.696 19.2072 26.696 19.2504H26.6888V33.0816C28.3664 33.0816 29.8568 32.9424 31.1888 32.6952V37.536C46.544 37.536 49.1888 26.736 49.1888 19.2048H49.184C49.184 19.176 49.1888 19.1472 49.1888 19.116L49.1912 19.1184Z" fill="#02B185"/>
<path d="M43.7288 11.6448H32.1512C27.8912 11.6448 24.44 15.0984 24.44 19.356C24.44 23.6136 27.8936 27.0672 32.1512 27.0672H43.7288C47.9888 27.0672 51.44 23.6136 51.44 19.356C51.44 15.0984 47.9864 11.6448 43.7288 11.6448Z" fill="#AAE5D6"/>
<path d="M43.7288 27.0672H32.1512C28.04 27.0672 24.692 23.8488 24.4616 19.7952C24.4544 19.9416 24.44 20.088 24.44 20.2368C24.44 24.4968 27.8936 27.948 32.1512 27.948H43.7288C47.9888 27.948 51.44 24.4968 51.44 20.2368C51.44 20.088 51.4256 19.944 51.4184 19.7952C51.188 23.8488 47.84 27.0672 43.7288 27.0672Z" fill="#02B185"/>
<path d="M42.9416 13.728C40.9472 13.728 39.1616 14.6088 37.94 15.9984C36.7184 14.6088 34.9328 13.728 32.9384 13.728C29.4248 13.728 26.552 16.4496 26.3 19.9008C26.552 23.352 29.4248 26.0736 32.9384 26.0736C35.1272 26.0736 35.2232 22.5864 37.94 22.5864C40.6568 22.5864 40.9352 26.0736 42.9416 26.0736C46.4552 26.0736 49.328 23.3496 49.58 19.9008C49.328 16.4496 46.4552 13.728 42.9416 13.728Z" fill="#00231B"/>
<path d="M49.604 19.4112C49.604 15.732 46.6208 12.7488 42.9416 12.7488C40.9472 12.7488 39.1616 13.6296 37.94 15.0192C36.7184 13.6296 34.9328 12.7488 32.9384 12.7488C29.2592 12.7488 26.276 15.732 26.276 19.4112C26.276 19.5768 26.288 19.7376 26.3 19.9008C26.552 16.4496 29.4248 13.728 32.9384 13.728C34.9328 13.728 36.7184 14.6088 37.94 15.9984C39.1616 14.6088 40.9472 13.728 42.9416 13.728C46.4552 13.728 49.328 16.452 49.58 19.9008C49.5656 20.112 49.5392 20.3208 49.5032 20.5272C49.5656 20.1624 49.604 19.7928 49.604 19.4112Z" fill="#02B185"/>
<path d="M43.0784 23.9784C45.6313 23.9784 47.7008 21.9089 47.7008 19.356C47.7008 16.8032 45.6313 14.7336 43.0784 14.7336C40.5255 14.7336 38.456 16.8032 38.456 19.356C38.456 21.9089 40.5255 23.9784 43.0784 23.9784Z" fill="#087F86"/>
<path d="M43.0784 22.4376C44.7803 22.4376 46.16 21.0579 46.16 19.356C46.16 17.6541 44.7803 16.2744 43.0784 16.2744C41.3765 16.2744 39.9968 17.6541 39.9968 19.356C39.9968 21.0579 41.3765 22.4376 43.0784 22.4376Z" fill="#CFF6F8"/>
<path d="M32.8016 23.9784C35.3545 23.9784 37.424 21.9089 37.424 19.356C37.424 16.8032 35.3545 14.7336 32.8016 14.7336C30.2487 14.7336 28.1792 16.8032 28.1792 19.356C28.1792 21.9089 30.2487 23.9784 32.8016 23.9784Z" fill="#087F86"/>
<path d="M32.8016 22.4376C34.5035 22.4376 35.8832 21.0579 35.8832 19.356C35.8832 17.6541 34.5035 16.2744 32.8016 16.2744C31.0997 16.2744 29.72 17.6541 29.72 19.356C29.72 21.0579 31.0997 22.4376 32.8016 22.4376Z" fill="#CFF6F8"/>
<path d="M37.94 23.2896C36.7232 23.2896 35.924 24.5327 35.924 25.5647C35.924 26.5967 37.2248 28.332 37.94 28.332C38.6552 28.332 39.956 26.5967 39.956 25.5647C39.956 24.5327 39.1568 23.2896 37.94 23.2896Z" fill="#00231B"/>
<path d="M12.584 52.5C12.2312 52.5 11.8904 52.4496 11.5664 52.3512C11.2424 52.2528 10.9496 52.1208 10.688 51.9528C10.4264 51.7848 10.2104 51.5904 10.04 51.3696C9.8672 51.1488 9.752 50.9208 9.6944 50.6832L10.2104 50.5056L10.0784 52.32H7.88V41.4192H10.2536V46.3752L9.7664 46.1976C9.824 45.9432 9.9392 45.7032 10.1048 45.4824C10.2728 45.2616 10.484 45.0648 10.7384 44.892C10.9928 44.7192 11.2736 44.5848 11.5784 44.4864C11.8832 44.388 12.1976 44.34 12.5216 44.34C13.2008 44.34 13.8032 44.5152 14.3288 44.8632C14.8544 45.2136 15.2696 45.6936 15.5744 46.308C15.8792 46.9224 16.0328 47.6232 16.0328 48.4104C16.0328 49.1976 15.884 49.9128 15.584 50.5272C15.284 51.1416 14.8736 51.624 14.3528 51.972C13.832 52.3224 13.2416 52.4952 12.5816 52.4952L12.584 52.5ZM11.9648 50.5104C12.32 50.5104 12.6296 50.4216 12.8936 50.244C13.16 50.0664 13.364 49.824 13.5056 49.5144C13.6472 49.2048 13.7192 48.8376 13.7192 48.4152C13.7192 47.9928 13.6472 47.6376 13.5056 47.3232C13.364 47.0088 13.16 46.7688 12.8936 46.6008C12.6272 46.4328 12.3176 46.3512 11.9648 46.3512C11.612 46.3512 11.2856 46.4352 11.0216 46.6008C10.7552 46.7688 10.5488 47.0088 10.4024 47.3232C10.2536 47.6376 10.1816 48.0024 10.1816 48.4152C10.1816 48.828 10.256 49.2048 10.4024 49.5144C10.5488 49.824 10.7552 50.0664 11.0216 50.244C11.288 50.4216 11.6024 50.5104 11.9648 50.5104Z" fill="white"/>
<path d="M19.8728 52.5C19.292 52.5 18.7976 52.3752 18.3896 52.1232C17.9816 51.8736 17.6672 51.5112 17.4464 51.0384C17.2256 50.5656 17.1152 50.0016 17.1152 49.3416V44.5032H19.4888V49.0176C19.4888 49.332 19.5368 49.6032 19.6376 49.8288C19.736 50.0544 19.8824 50.2296 20.0792 50.352C20.276 50.4744 20.5112 50.5368 20.7872 50.5368C20.9936 50.5368 21.1832 50.5032 21.356 50.4336C21.5288 50.364 21.6752 50.268 21.7976 50.1456C21.92 50.0232 22.016 49.8792 22.0856 49.7184C22.1552 49.5552 22.1888 49.3776 22.1888 49.1808V44.5056H24.5624V52.3368H22.3352L22.232 50.7288L22.6736 50.5512C22.556 50.9256 22.3592 51.2568 22.0832 51.5472C21.8072 51.8376 21.4784 52.068 21.0944 52.2408C20.7104 52.4136 20.3024 52.5 19.8704 52.5H19.8728Z" fill="white"/>
<path d="M30.8072 52.5C30.4544 52.5 30.1136 52.4496 29.7896 52.3512C29.4656 52.2528 29.1728 52.1208 28.9112 51.9528C28.6496 51.7848 28.4336 51.5904 28.2632 51.3696C28.0904 51.1488 27.9752 50.9208 27.9176 50.6832L28.4336 50.5056L28.3016 52.32H26.1032V41.4192H28.4768V46.3752L27.9896 46.1976C28.0472 45.9432 28.1624 45.7032 28.328 45.4824C28.496 45.2616 28.7072 45.0648 28.9616 44.892C29.216 44.7192 29.4968 44.5848 29.8016 44.4864C30.1064 44.388 30.4208 44.34 30.7448 44.34C31.424 44.34 32.0264 44.5152 32.552 44.8632C33.0776 45.2136 33.4928 45.6936 33.7976 46.308C34.1024 46.9224 34.256 47.6232 34.256 48.4104C34.256 49.1976 34.1072 49.9128 33.8072 50.5272C33.5072 51.1416 33.0968 51.624 32.576 51.972C32.0552 52.3224 31.4648 52.4952 30.8048 52.4952L30.8072 52.5ZM30.188 50.5104C30.5432 50.5104 30.8528 50.4216 31.1168 50.244C31.3832 50.0664 31.5872 49.824 31.7288 49.5144C31.8704 49.2048 31.9424 48.8376 31.9424 48.4152C31.9424 47.9928 31.8704 47.6376 31.7288 47.3232C31.5872 47.0088 31.3832 46.7688 31.1168 46.6008C30.8504 46.4328 30.5408 46.3512 30.188 46.3512C29.8352 46.3512 29.5088 46.4352 29.2448 46.6008C28.9784 46.7688 28.772 47.0088 28.6256 47.3232C28.4768 47.6376 28.4048 48.0024 28.4048 48.4152C28.4048 48.828 28.4792 49.2048 28.6256 49.5144C28.772 49.824 28.9784 50.0664 29.2448 50.244C29.5112 50.4216 29.8256 50.5104 30.188 50.5104Z" fill="white"/>
<path d="M39.1088 52.4855C38.2928 52.4855 37.568 52.3079 36.9344 51.9551C36.3008 51.5999 35.7992 51.1199 35.4296 50.5103C35.06 49.9007 34.8776 49.2023 34.8776 48.4151C34.8776 47.6279 35.0624 46.9295 35.4296 46.3199C35.7992 45.7103 36.3008 45.2279 36.9344 44.8751C37.568 44.5223 38.2928 44.3447 39.1088 44.3447C39.9248 44.3447 40.6496 44.5223 41.2832 44.8751C41.9168 45.2303 42.416 45.7103 42.7808 46.3199C43.1432 46.9295 43.3256 47.6279 43.3256 48.4151C43.3256 49.2023 43.1432 49.9007 42.7808 50.5103C42.416 51.1199 41.9168 51.6023 41.2832 51.9551C40.6496 52.3079 39.9224 52.4855 39.1088 52.4855ZM39.1088 50.4503C39.4616 50.4503 39.7784 50.3615 40.052 50.1839C40.328 50.0063 40.544 49.7663 40.7 49.4615C40.856 49.1567 40.9304 48.8063 40.9208 48.4151C40.9304 48.0215 40.856 47.6711 40.7 47.3615C40.5416 47.0519 40.3256 46.8095 40.052 46.6319C39.776 46.4543 39.4616 46.3655 39.1088 46.3655C38.756 46.3655 38.4368 46.4543 38.156 46.6319C37.8752 46.8095 37.6568 47.0519 37.5008 47.3615C37.3424 47.6711 37.2704 48.0239 37.28 48.4151C37.2704 48.8087 37.3448 49.1567 37.5008 49.4615C37.6592 49.7663 37.8776 50.0063 38.156 50.1839C38.4368 50.3615 38.7536 50.4503 39.1088 50.4503Z" fill="white"/>
<path d="M49.1096 52.5C48.7568 52.5 48.416 52.4496 48.092 52.3512C47.768 52.2528 47.4752 52.1208 47.2136 51.9528C46.952 51.7848 46.736 51.5904 46.5656 51.3696C46.3928 51.1488 46.2776 50.9208 46.22 50.6832L46.736 50.5056L46.604 52.32H44.4056V41.4192H46.7792V46.3752L46.292 46.1976C46.3496 45.9432 46.4648 45.7032 46.6304 45.4824C46.7984 45.2616 47.0096 45.0648 47.264 44.892C47.5184 44.7192 47.7992 44.5848 48.104 44.4864C48.4088 44.388 48.7232 44.34 49.0472 44.34C49.7264 44.34 50.3288 44.5152 50.8544 44.8632C51.38 45.2136 51.7952 45.6936 52.1 46.308C52.4048 46.9224 52.5584 47.6232 52.5584 48.4104C52.5584 49.1976 52.4096 49.9128 52.1096 50.5272C51.8096 51.1416 51.3992 51.624 50.8784 51.972C50.3576 52.3224 49.7672 52.4952 49.1072 52.4952L49.1096 52.5ZM48.4904 50.5104C48.8456 50.5104 49.1552 50.4216 49.4192 50.244C49.6856 50.0664 49.8896 49.824 50.0312 49.5144C50.1728 49.2048 50.2448 48.8376 50.2448 48.4152C50.2448 47.9928 50.1728 47.6376 50.0312 47.3232C49.8896 47.0088 49.6856 46.7688 49.4192 46.6008C49.1528 46.4328 48.8432 46.3512 48.4904 46.3512C48.1376 46.3512 47.8112 46.4352 47.5472 46.6008C47.2808 46.7688 47.0744 47.0088 46.928 47.3232C46.7792 47.6376 46.7072 48.0024 46.7072 48.4152C46.7072 48.828 46.7816 49.2048 46.928 49.5144C47.0744 49.824 47.2808 50.0664 47.5472 50.244C47.8136 50.4216 48.128 50.5104 48.4904 50.5104Z" fill="white"/>
<path d="M57.872 52.4855C57.056 52.4855 56.3312 52.3079 55.6976 51.9551C55.064 51.5999 54.5624 51.1199 54.1928 50.5103C53.8232 49.9007 53.6408 49.2023 53.6408 48.4151C53.6408 47.6279 53.8256 46.9295 54.1928 46.3199C54.5624 45.7103 55.064 45.2279 55.6976 44.8751C56.3312 44.5223 57.056 44.3447 57.872 44.3447C58.688 44.3447 59.4128 44.5223 60.0464 44.8751C60.68 45.2303 61.1792 45.7103 61.544 46.3199C61.9064 46.9295 62.0888 47.6279 62.0888 48.4151C62.0888 49.2023 61.9064 49.9007 61.544 50.5103C61.1792 51.1199 60.68 51.6023 60.0464 51.9551C59.4128 52.3079 58.6856 52.4855 57.872 52.4855ZM57.872 50.4503C58.2248 50.4503 58.5416 50.3615 58.8152 50.1839C59.0912 50.0063 59.3072 49.7663 59.4632 49.4615C59.6192 49.1567 59.6936 48.8063 59.684 48.4151C59.6936 48.0215 59.6192 47.6711 59.4632 47.3615C59.3048 47.0519 59.0888 46.8095 58.8152 46.6319C58.5392 46.4543 58.2248 46.3655 57.872 46.3655C57.5192 46.3655 57.2 46.4543 56.9192 46.6319C56.6384 46.8095 56.42 47.0519 56.264 47.3615C56.1056 47.6711 56.0336 48.0239 56.0432 48.4151C56.0336 48.8087 56.108 49.1567 56.264 49.4615C56.4224 49.7663 56.6408 50.0063 56.9192 50.1839C57.2 50.3615 57.5168 50.4503 57.872 50.4503Z" fill="white"/>
<path d="M62.6144 46.5719V44.5079H67.88V46.5719H62.6144ZM64.0016 52.3391V42.5303H66.3608V52.3391H64.0016Z" fill="white"/>
</svg>
